<svg xmlns="http://www.w3.org/2000/svg" viewBox="0 0 1024 1024" width="1024" height="1024" role="img" aria-label="openAssistant">
  <defs>
    <linearGradient id="oaBg" gradientUnits="userSpaceOnUse" x1="150" y1="110" x2="900" y2="940">
      <stop offset="0" stop-color="#3b82f6"/>
      <stop offset="0.55" stop-color="#2563eb"/>
      <stop offset="1" stop-color="#1d4ed8"/>
    </linearGradient>
    <radialGradient id="oaSheen" gradientUnits="userSpaceOnUse" cx="512" cy="250" r="560">
      <stop offset="0" stop-color="#ffffff" stop-opacity="0.16"/>
      <stop offset="0.6" stop-color="#ffffff" stop-opacity="0.04"/>
      <stop offset="1" stop-color="#ffffff" stop-opacity="0"/>
    </radialGradient>
  </defs>
  <rect x="48" y="48" width="928" height="928" rx="224" ry="224" fill="url(#oaBg)"/>
  <rect x="48" y="48" width="928" height="928" rx="224" ry="224" fill="url(#oaSheen)"/>
  <g transform="translate(512 495) scale(1.08) translate(-512 -495)">
    <path fill="#ffffff" d="M332 200
      C360 304 428 300 512 332
      C596 300 664 304 692 200
      C724 258 776 332 792 446
      C806 548 794 654 700 728
      C638 776 578 790 512 790
      C446 790 386 776 324 728
      C230 654 218 548 232 446
      C248 332 300 258 332 200 Z"/>
    <circle cx="388" cy="470" r="108" fill="#f59e0b"/>
    <circle cx="636" cy="470" r="108" fill="#f59e0b"/>
    <circle cx="388" cy="470" r="60" fill="#0b1220"/>
    <circle cx="636" cy="470" r="60" fill="#0b1220"/>
    <circle cx="366" cy="448" r="17" fill="#ffffff" fill-opacity="0.92"/>
    <circle cx="658" cy="448" r="17" fill="#ffffff" fill-opacity="0.92"/>
    <path fill="#f59e0b" d="M500 502 L524 502 L512 604 Z"/>
  </g>
</svg>
